Coordinates
version=1
nRows=6
nColumns=63
inDegrees=yes

Units are S.I. units (second, meters, Newtons, ...)
If the header above contains a line with 'inDegrees', this indicates whether rotational values are in degrees (yes) or radians (no).

endheader
time	pelvis_tilt	pelvis_list	pelvis_rotation	pelvis_tx	pelvis_ty	pelvis_tz	hip_flexion_r	hip_adduction_r	hip_rotation_r	knee_angle_r	knee_angle_r_beta	ankle_angle_r	subtalar_angle_r	mtp_angle_r	hip_flexion_l	hip_adduction_l	hip_rotation_l	knee_angle_l	knee_angle_l_beta	ankle_angle_l	subtalar_angle_l	mtp_angle_l	L5_S1_Flex_Ext	L5_S1_Lat_Bending	L5_S1_axial_rotation	L4_L5_Flex_Ext	L4_L5_Lat_Bending	L4_L5_axial_rotation	L3_L4_Flex_Ext	L3_L4_Lat_Bending	L3_L4_axial_rotation	L2_L3_Flex_Ext	L2_L3_Lat_Bending	L2_L3_axial_rotation	L1_L2_Flex_Ext	L1_L2_Lat_Bending	L1_L2_axial_rotation	L1_T12_Flex_Ext	L1_T12_Lat_Bending	L1_T12_axial_rotation	Abs_r3	Abs_r2	Abs_r1	Abs_t1	Abs_t2	neck_flexion	neck_bending	neck_rotation	arm_flex_r	arm_add_r	arm_rot_r	elbow_flex_r	pro_sup_r	wrist_flex_r	wrist_dev_r	arm_flex_l	arm_add_l	arm_rot_l	elbow_flex_l	pro_sup_l	wrist_flex_l	wrist_dev_l
      0.96610169	     -3.37293034	     -3.67293705	     84.42515083	      0.33485541	      0.98447256	      0.41358560	      1.46204834	      0.89688145	     10.40415688	      5.15565118	      0.08998309	     27.75833699	    -12.34423673	      0.00000000	      8.79473914	     -0.33076889	      4.18099943	     18.09096401	      0.31574689	     37.09922386	    -10.07284972	      0.00000000	      0.35423187	     -0.24212163	      0.53798390	      0.65784400	     -0.32202177	      0.57160789	      0.58196753	     -0.58869454	      0.57160789	      0.40485160	     -0.58869454	      0.47073591	      0.32893971	     -0.49373443	      0.43711192	      0.20240809	     -0.37504641	      0.40348792	      2.53024280	     -2.73892833	      2.99210504	      0.00000000	      0.00000000	     25.12779909	     -2.74287527	     -9.85124321	     22.16739929	    -26.11224998	     72.30596942	     75.73959026	     79.96140537	     13.56726684	    -15.85931330	     26.50955885	    -34.62328390	     79.60038920	     78.85968876	     56.45459366	     10.72093669	     -9.50138554
      0.98305085	     -3.27473116	     -3.59761063	     84.75852670	      0.33464244	      0.98452071	      0.41366759	      1.21676877	      0.99616259	     10.10193470	      4.87177888	      0.08502858	     27.38529895	    -12.49601164	      0.00000000	      8.80422179	     -0.39041993	      4.48412893	     18.19464616	      0.31755648	     37.05475466	    -10.02966954	      0.00000000	      0.35874937	     -0.23401479	      0.47236835	      0.66623345	     -0.31123967	      0.50189137	      0.58938933	     -0.56898355	      0.50189137	      0.41001465	     -0.56898355	      0.41332230	      0.33313466	     -0.47720295	      0.38379928	      0.20498939	     -0.36248890	      0.35427626	      2.56251084	     -2.64722207	      2.62717104	      0.00000000	      0.00000000	     25.31004659	     -2.65510812	     -9.26958252	     22.53791325	    -26.51021905	     71.73179523	     75.22746258	     80.47756710	     11.74003296	    -16.48509082	     27.35472875	    -34.50267043	     80.71463078	     77.91693610	     56.39842923	     10.19960940	     -9.87925538
      1.00000000	     -3.19916554	     -3.50804486	     84.98502871	      0.33442716	      0.98463550	      0.41366014	      0.97357778	      1.06394209	      9.93151382	      4.61491664	      0.08054549	     26.98819887	    -12.64852129	      0.00000000	      8.78053487	     -0.42679430	      4.75579630	     18.28177129	      0.31907710	     37.13788376	     -9.95876679	      0.00000000	      0.36424696	     -0.22748512	      0.42831116	      0.67644304	     -0.30255521	      0.45508061	      0.59842134	     -0.55310733	      0.45508061	      0.41629786	     -0.55310733	      0.37477227	      0.33823973	     -0.46388766	      0.34800282	      0.20813072	     -0.35237445	      0.32123337	      2.60177964	     -2.57335720	      2.38213819	      0.00000000	      0.00000000	     25.54465056	     -2.90210797	     -9.04153011	     22.75501953	    -26.98241243	     71.09185769	     74.65827840	     81.60659350	      8.73670896	    -16.72501307	     27.88915727	    -34.01093977	     81.35796052	     76.49063479	     56.53280751	      9.38474873	    -10.13631134
      1.01694915	     -3.25906858	     -3.46797242	     84.90220334	      0.33473967	      0.98468015	      0.41392945	      0.93374307	      1.01477939	      9.94072795	      4.55520584	      0.07950334	     26.82067951	    -12.63926491	      0.00000000	      8.79389038	     -0.37636909	      4.74530717	     18.34067924	      0.32010524	     37.22945726	     -9.96031836	      0.00000000	      0.37878949	     -0.24276056	      0.39077776	      0.70344996	     -0.32287154	      0.41520136	      0.62231325	     -0.59024802	      0.41520136	      0.43291851	     -0.59024802	      0.34193054	      0.35174392	     -0.49503733	      0.31750693	      0.21644031	     -0.37603610	      0.29308332	      2.70565545	     -2.74615597	      2.17338864	      0.00000000	      0.00000000	     25.82411708	     -2.96612202	     -9.12248381	     23.15702822	    -27.03295579	     70.60496320	     73.43648611	     81.77609788	      8.02524281	    -16.37208126	     27.95561363	    -33.52963329	     81.21102325	     74.81857917	     56.57400399	      8.87014556	     -9.86641868
      1.03389831	     -3.11146930	     -3.33941895	     85.15062314	      0.33434901	      0.98485630	      0.41379998	      0.61475394	      1.14182461	      9.82503681	      4.21078756	      0.07349211	     26.37894821	    -13.12773044	      0.00000000	      8.72205451	     -0.49611951	      4.77307426	     18.45778275	      0.32214908	     37.36260027	     -9.73473912	      0.00000000	      0.37578008	     -0.23330622	      0.39029010	      0.69786119	     -0.31029728	      0.41468323	      0.61736909	     -0.56726075	      0.41468323	      0.42947905	     -0.56726075	      0.34150384	      0.34894938	     -0.47575805	      0.31711071	      0.21472074	     -0.36139134	      0.29271758	      2.68415954	     -2.63920666	      2.17067646	      0.00000000	      0.00000000	     25.96391355	     -3.83478685	    -10.25278746	     22.98334572	    -27.73965821	     69.92941016	     73.23149797	     84.33043993	      3.26858711	    -15.19220485	     28.08175933	    -32.42005180	     81.01878836	     72.69271521	     59.51786159	      7.15924432	    -10.08291435
      1.05084746	     -3.06681959	     -3.27241777	     85.08877008	      0.33437310	      0.98491681	      0.41368247	      0.47405373	      1.16870494	      9.85004421	      4.05221804	      0.07072455	     26.13673370	    -13.39585456	      0.00000000	      8.62945938	     -0.55862853	      4.54957150	     18.47480302	      0.32244614	     37.33769715	     -9.64636007	      0.00000000	      0.38582805	     -0.23558336	      0.39850176	      0.71652128	     -0.31332586	      0.42340812	      0.63387691	     -0.57279737	      0.42340812	      0.44096288	     -0.57279737	      0.34868904	      0.35827993	     -0.48040158	      0.32378268	      0.22046215	     -0.36491862	      0.29887632	      2.75593121	     -2.66496605	      2.21634725	      0.00000000	      0.00000000	     26.17080377	     -4.35241523	    -11.23306211	     22.79756397	    -27.96241599	     69.19436181	     72.45243281	     84.46997531	      2.88872307	    -13.30762182	     27.88317105	    -31.45503644	     80.16939839	     70.54531889	     63.49747250	      5.89920789	     -9.93827905
